G04 Layer_Color=8388736*
%FSLAX23Y23*%
%MOIN*%
G70*
G01*
G75*
%ADD13R,0.110X0.030*%
G04:AMPARAMS|DCode=44|XSize=30mil|YSize=32mil|CornerRadius=8mil|HoleSize=0mil|Usage=FLASHONLY|Rotation=0.000|XOffset=0mil|YOffset=0mil|HoleType=Round|Shape=RoundedRectangle|*
%AMROUNDEDRECTD44*
21,1,0.030,0.015,0,0,0.0*
21,1,0.013,0.032,0,0,0.0*
1,1,0.017,0.007,-0.008*
1,1,0.017,-0.007,-0.008*
1,1,0.017,-0.007,0.008*
1,1,0.017,0.007,0.008*
%
%ADD44ROUNDEDRECTD44*%
%ADD45O,0.065X0.032*%
%ADD46R,0.142X0.063*%
G04:AMPARAMS|DCode=47|XSize=37mil|YSize=47mil|CornerRadius=10mil|HoleSize=0mil|Usage=FLASHONLY|Rotation=180.000|XOffset=0mil|YOffset=0mil|HoleType=Round|Shape=RoundedRectangle|*
%AMROUNDEDRECTD47*
21,1,0.037,0.028,0,0,180.0*
21,1,0.017,0.047,0,0,180.0*
1,1,0.020,-0.009,0.014*
1,1,0.020,0.009,0.014*
1,1,0.020,0.009,-0.014*
1,1,0.020,-0.009,-0.014*
%
%ADD47ROUNDEDRECTD47*%
%ADD48O,0.038X0.018*%
%ADD49O,0.018X0.038*%
%ADD50R,0.108X0.108*%
%ADD51R,0.091X0.063*%
G04:AMPARAMS|DCode=52|XSize=30mil|YSize=32mil|CornerRadius=8mil|HoleSize=0mil|Usage=FLASHONLY|Rotation=90.000|XOffset=0mil|YOffset=0mil|HoleType=Round|Shape=RoundedRectangle|*
%AMROUNDEDRECTD52*
21,1,0.030,0.015,0,0,90.0*
21,1,0.013,0.032,0,0,90.0*
1,1,0.017,0.008,0.007*
1,1,0.017,0.008,-0.007*
1,1,0.017,-0.008,-0.007*
1,1,0.017,-0.008,0.007*
%
%ADD52ROUNDEDRECTD52*%
%ADD53R,0.039X0.032*%
%ADD54R,0.075X0.051*%
G04:AMPARAMS|DCode=55|XSize=60mil|YSize=68mil|CornerRadius=17mil|HoleSize=0mil|Usage=FLASHONLY|Rotation=180.000|XOffset=0mil|YOffset=0mil|HoleType=Round|Shape=RoundedRectangle|*
%AMROUNDEDRECTD55*
21,1,0.060,0.034,0,0,180.0*
21,1,0.026,0.068,0,0,180.0*
1,1,0.034,-0.013,0.017*
1,1,0.034,0.013,0.017*
1,1,0.034,0.013,-0.017*
1,1,0.034,-0.013,-0.017*
%
%ADD55ROUNDEDRECTD55*%
%ADD56R,0.091X0.073*%
%ADD57R,0.041X0.069*%
%ADD58R,0.025X0.017*%
%ADD59C,0.067*%
%ADD60R,0.067X0.067*%
%ADD61O,0.128X0.068*%
%ADD62C,0.205*%
%ADD63O,0.068X0.128*%
D13*
X1360Y785D02*
D03*
X1520D02*
D03*
X1360Y735D02*
D03*
X1520D02*
D03*
X1360Y685D02*
D03*
X1520D02*
D03*
X1360Y635D02*
D03*
X1520D02*
D03*
X1360Y585D02*
D03*
X1520D02*
D03*
D44*
X639Y765D02*
D03*
X601D02*
D03*
X791Y760D02*
D03*
X829D02*
D03*
X1501Y520D02*
D03*
X1539D02*
D03*
X1316Y395D02*
D03*
X1354D02*
D03*
D45*
X817Y560D02*
D03*
Y610D02*
D03*
Y660D02*
D03*
Y710D02*
D03*
X603Y560D02*
D03*
Y610D02*
D03*
Y660D02*
D03*
Y710D02*
D03*
D46*
X1028Y135D02*
D03*
X1232D02*
D03*
D47*
X1488Y480D02*
D03*
X1542D02*
D03*
X657Y230D02*
D03*
X603D02*
D03*
D48*
X1544Y372D02*
D03*
Y352D02*
D03*
Y333D02*
D03*
Y313D02*
D03*
Y293D02*
D03*
Y274D02*
D03*
X1698D02*
D03*
Y293D02*
D03*
Y313D02*
D03*
Y333D02*
D03*
Y352D02*
D03*
Y372D02*
D03*
D49*
X1572Y246D02*
D03*
X1591D02*
D03*
X1611D02*
D03*
X1631D02*
D03*
X1650D02*
D03*
X1670D02*
D03*
Y400D02*
D03*
X1650D02*
D03*
X1631D02*
D03*
X1611D02*
D03*
X1591D02*
D03*
X1572D02*
D03*
D50*
X1621Y323D02*
D03*
D51*
X675Y475D02*
D03*
Y298D02*
D03*
X1033D02*
D03*
Y475D02*
D03*
D52*
X1488Y432D02*
D03*
Y394D02*
D03*
D53*
X1395Y398D02*
D03*
X1442D02*
D03*
D54*
X865Y182D02*
D03*
Y78D02*
D03*
D55*
X792Y85D02*
D03*
X717D02*
D03*
D56*
X625Y155D02*
D03*
Y75D02*
D03*
D57*
X770Y175D02*
D03*
D58*
X733Y145D02*
D03*
Y165D02*
D03*
Y185D02*
D03*
Y205D02*
D03*
X807D02*
D03*
Y185D02*
D03*
Y165D02*
D03*
Y145D02*
D03*
D59*
X510Y575D02*
D03*
Y675D02*
D03*
Y475D02*
D03*
Y95D02*
D03*
D60*
Y775D02*
D03*
Y195D02*
D03*
D61*
X3540Y655D02*
D03*
Y555D02*
D03*
Y455D02*
D03*
D62*
X1000Y700D02*
D03*
X3540Y200D02*
D03*
D63*
X2895Y365D02*
D03*
X2795D02*
D03*
X2695D02*
D03*
X2480D02*
D03*
X2380D02*
D03*
X2280D02*
D03*
X3110Y605D02*
D03*
X3210D02*
D03*
X3310D02*
D03*
X2065Y365D02*
D03*
X1965D02*
D03*
X1865D02*
D03*
X3310D02*
D03*
X3210D02*
D03*
X3110D02*
D03*
X2695Y605D02*
D03*
X2795D02*
D03*
X2895D02*
D03*
X2280D02*
D03*
X2380D02*
D03*
X2480D02*
D03*
X1865D02*
D03*
X1965D02*
D03*
X2065D02*
D03*
M02*
