G04 Layer_Color=32896*
%FSLAX23Y23*%
%MOIN*%
G70*
G01*
G75*
G36*
X622Y263D02*
X624Y263D01*
X627Y262D01*
X628Y261D01*
X629Y260D01*
X630Y260D01*
X630Y259D01*
Y261D01*
X630Y262D01*
Y262D01*
X631Y263D01*
X631Y263D01*
X637D01*
X638Y263D01*
X638Y263D01*
X638Y262D01*
Y262D01*
Y156D01*
X638Y156D01*
X638Y155D01*
X638Y155D01*
X631D01*
X631Y155D01*
X630Y156D01*
Y156D01*
Y156D01*
Y180D01*
X629Y183D01*
X628Y186D01*
X627Y187D01*
X626Y188D01*
X624Y189D01*
X623Y189D01*
X622Y189D01*
X622D01*
X619Y189D01*
X618Y188D01*
X616Y187D01*
X615Y185D01*
X614Y184D01*
X614Y182D01*
X614Y181D01*
Y181D01*
Y156D01*
X613Y156D01*
X613Y155D01*
X613Y155D01*
X606D01*
X605Y155D01*
X605Y156D01*
Y156D01*
Y156D01*
Y181D01*
X605Y184D01*
X606Y186D01*
X607Y189D01*
X608Y191D01*
X609Y192D01*
X610Y194D01*
X612Y196D01*
X614Y197D01*
X617Y197D01*
X618Y198D01*
X618D01*
X621Y197D01*
X623Y197D01*
X625Y196D01*
X627Y195D01*
X628Y194D01*
X629Y194D01*
X630Y193D01*
X630Y193D01*
Y226D01*
X628Y224D01*
X627Y223D01*
X625Y222D01*
X623Y221D01*
X622Y221D01*
X621Y221D01*
X619D01*
X617Y221D01*
X614Y222D01*
X613Y223D01*
X611Y224D01*
X609Y226D01*
X608Y227D01*
X607Y231D01*
X605Y235D01*
X605Y238D01*
X605Y239D01*
Y241D01*
Y241D01*
Y241D01*
Y245D01*
X605Y248D01*
X605Y250D01*
X605Y252D01*
X606Y254D01*
X606Y255D01*
X606Y255D01*
Y256D01*
X608Y258D01*
X610Y260D01*
X612Y262D01*
X614Y263D01*
X616Y263D01*
X618Y264D01*
X621D01*
X622Y263D01*
D02*
G37*
G36*
X586Y197D02*
X589Y197D01*
X592Y196D01*
X594Y195D01*
X595Y194D01*
X596Y193D01*
X596Y192D01*
X597Y192D01*
X595Y189D01*
X592Y188D01*
X591Y187D01*
X591Y187D01*
X590D01*
X590Y188D01*
X589Y188D01*
X587Y189D01*
X586Y189D01*
X579D01*
X577Y189D01*
X576Y189D01*
X575Y188D01*
X575Y187D01*
X574Y186D01*
Y185D01*
Y185D01*
Y180D01*
X580D01*
X583Y180D01*
X586Y180D01*
X589Y179D01*
X591Y178D01*
X593Y177D01*
X595Y176D01*
X596Y175D01*
X597Y174D01*
X599Y172D01*
X599Y170D01*
X600Y168D01*
Y168D01*
Y168D01*
X599Y165D01*
X598Y164D01*
X598Y162D01*
X596Y160D01*
X595Y158D01*
X592Y157D01*
X590Y156D01*
X589Y155D01*
X588Y155D01*
X581D01*
X580Y155D01*
X578Y156D01*
X576Y157D01*
X575Y158D01*
X575Y158D01*
X574D01*
Y157D01*
X574Y156D01*
X573Y156D01*
X573Y155D01*
X566D01*
X566Y155D01*
X565Y156D01*
Y156D01*
Y156D01*
Y182D01*
X566Y185D01*
X566Y187D01*
X567Y189D01*
X568Y191D01*
X569Y193D01*
X571Y194D01*
X573Y196D01*
X577Y197D01*
X579Y197D01*
X581Y198D01*
X583D01*
X586Y197D01*
D02*
G37*
G36*
X447Y263D02*
X449Y263D01*
X451Y263D01*
X451Y262D01*
X451Y262D01*
X452D01*
X455Y260D01*
X457Y257D01*
X459Y254D01*
X460Y250D01*
X461Y247D01*
X461Y245D01*
X461Y244D01*
Y243D01*
Y242D01*
Y242D01*
X461Y239D01*
X461Y237D01*
Y236D01*
Y235D01*
Y235D01*
Y235D01*
X460Y232D01*
X459Y230D01*
X458Y228D01*
X456Y227D01*
X454Y224D01*
X452Y223D01*
X449Y222D01*
X448Y221D01*
X447Y221D01*
X443D01*
X440Y221D01*
X438Y222D01*
X436Y223D01*
X434Y224D01*
X431Y227D01*
X429Y230D01*
X428Y233D01*
X427Y236D01*
X427Y237D01*
X426Y238D01*
Y239D01*
Y239D01*
Y246D01*
X427Y249D01*
X428Y252D01*
X428Y254D01*
X430Y256D01*
X431Y258D01*
X432Y259D01*
X434Y260D01*
X435Y261D01*
X438Y263D01*
X440Y263D01*
X441Y264D01*
X444D01*
X447Y263D01*
D02*
G37*
G36*
X666D02*
X668Y263D01*
X669Y263D01*
X669Y263D01*
X673Y261D01*
X675Y258D01*
X678Y255D01*
X679Y252D01*
X679Y250D01*
X680Y248D01*
X680Y246D01*
Y246D01*
Y246D01*
Y239D01*
Y237D01*
X680Y235D01*
X679Y234D01*
Y233D01*
Y233D01*
X678Y231D01*
X678Y229D01*
X676Y227D01*
X675Y226D01*
X673Y224D01*
X670Y222D01*
X668Y222D01*
X665Y221D01*
X664Y221D01*
X660D01*
X659Y221D01*
X658Y221D01*
X656Y222D01*
X656Y222D01*
X656D01*
X654Y223D01*
X652Y224D01*
X650Y227D01*
X648Y230D01*
X646Y234D01*
X646Y237D01*
X646Y240D01*
X645Y241D01*
Y241D01*
Y242D01*
Y242D01*
Y244D01*
X646Y247D01*
X646Y250D01*
X647Y252D01*
X647Y254D01*
X649Y256D01*
X650Y258D01*
X653Y260D01*
X656Y262D01*
X658Y263D01*
X659Y263D01*
X660D01*
X660Y264D01*
X664D01*
X666Y263D01*
D02*
G37*
G36*
X487Y263D02*
X489Y263D01*
X491Y262D01*
X493Y261D01*
X494Y260D01*
X495Y259D01*
X497Y257D01*
X498Y255D01*
X498Y254D01*
X499Y253D01*
Y252D01*
Y250D01*
X498Y248D01*
X498Y246D01*
X496Y244D01*
X495Y243D01*
X494Y241D01*
X493Y241D01*
X492Y240D01*
X492Y240D01*
X489Y240D01*
X486Y239D01*
X484Y239D01*
X482Y238D01*
X480Y238D01*
X479Y238D01*
X477Y237D01*
X477Y237D01*
X475Y236D01*
X475Y236D01*
X475Y236D01*
Y233D01*
X475Y231D01*
X477Y230D01*
X478Y230D01*
X479Y229D01*
X480Y229D01*
X481Y229D01*
X482D01*
X485Y229D01*
X488Y230D01*
X490Y231D01*
X492Y232D01*
X493Y232D01*
X495Y233D01*
X495Y234D01*
X495Y234D01*
X498Y232D01*
X499Y231D01*
X500Y230D01*
X501Y229D01*
X501Y229D01*
X501Y229D01*
Y228D01*
X498Y226D01*
X495Y224D01*
X493Y223D01*
X490Y222D01*
X488Y221D01*
X486Y221D01*
X484Y221D01*
X481D01*
X479Y221D01*
X476Y222D01*
X474Y223D01*
X472Y224D01*
X470Y225D01*
X469Y226D01*
X468Y228D01*
X466Y230D01*
X466Y232D01*
X465Y233D01*
Y233D01*
Y234D01*
X466Y237D01*
X467Y239D01*
X468Y241D01*
X470Y243D01*
X471Y244D01*
X472Y245D01*
X473Y245D01*
X474Y246D01*
X477Y246D01*
X479Y246D01*
X481Y246D01*
X483Y247D01*
X485Y247D01*
X486Y248D01*
X488Y248D01*
X489Y249D01*
X490Y249D01*
X490Y250D01*
Y250D01*
X490Y252D01*
X489Y253D01*
X488Y254D01*
X487Y255D01*
X486Y255D01*
X484Y256D01*
X484D01*
X481Y255D01*
X479Y255D01*
X477Y255D01*
X475Y254D01*
X474Y253D01*
X473Y253D01*
X472Y252D01*
X472Y252D01*
X472D01*
X470Y254D01*
X469Y255D01*
X468Y256D01*
X468Y257D01*
X467Y258D01*
Y259D01*
X470Y260D01*
X472Y262D01*
X475Y262D01*
X477Y263D01*
X479Y263D01*
X481Y264D01*
X484D01*
X487Y263D01*
D02*
G37*
G36*
X417Y197D02*
X420Y197D01*
X423Y196D01*
X424Y195D01*
X426Y194D01*
X427Y193D01*
X427Y192D01*
X428Y192D01*
Y191D01*
X426Y190D01*
X424Y189D01*
X424Y188D01*
X423Y187D01*
X421Y187D01*
X421Y187D01*
X420Y188D01*
X419Y188D01*
X418Y189D01*
X417Y189D01*
X410D01*
X408Y189D01*
X407Y189D01*
X406Y188D01*
X405Y187D01*
X405Y186D01*
Y186D01*
Y180D01*
X410D01*
X414Y180D01*
X417Y180D01*
X419Y179D01*
X422Y178D01*
X424Y178D01*
X425Y177D01*
X427Y175D01*
X428Y174D01*
X429Y172D01*
X430Y170D01*
X430Y169D01*
Y168D01*
Y168D01*
X430Y166D01*
X429Y164D01*
X428Y162D01*
X428Y161D01*
X426Y158D01*
X423Y157D01*
X421Y156D01*
X419Y155D01*
X419Y155D01*
X412D01*
X410Y155D01*
X409Y156D01*
X407Y157D01*
X405Y158D01*
X405Y158D01*
X405D01*
Y157D01*
X405Y156D01*
X404Y156D01*
X404Y155D01*
X397D01*
X396Y155D01*
X396Y156D01*
Y156D01*
Y156D01*
Y180D01*
Y183D01*
X396Y185D01*
X396Y187D01*
Y187D01*
Y187D01*
X397Y189D01*
X397Y190D01*
X398Y192D01*
X399Y193D01*
X402Y195D01*
X405Y196D01*
X407Y197D01*
X410Y197D01*
X411D01*
X412Y198D01*
X414D01*
X417Y197D01*
D02*
G37*
G36*
X502Y214D02*
X503Y214D01*
X503Y213D01*
Y213D01*
Y193D01*
X505Y194D01*
X507Y196D01*
X508Y196D01*
X510Y197D01*
X511Y197D01*
X512Y198D01*
X513D01*
X516Y197D01*
X518Y197D01*
X520Y196D01*
X521Y195D01*
X523Y194D01*
X524Y193D01*
X526Y190D01*
X527Y187D01*
X527Y184D01*
X528Y183D01*
Y183D01*
Y182D01*
Y182D01*
Y169D01*
X527Y167D01*
X527Y165D01*
X526Y163D01*
X525Y161D01*
X523Y159D01*
X521Y157D01*
X519Y156D01*
X517Y155D01*
X516Y155D01*
X511D01*
X510Y155D01*
X508Y156D01*
X506Y157D01*
X505Y158D01*
X504Y159D01*
X503Y159D01*
X503Y159D01*
Y158D01*
X503Y157D01*
Y156D01*
X502Y156D01*
X502Y155D01*
X495D01*
X495Y155D01*
X494Y156D01*
Y156D01*
Y156D01*
Y213D01*
X494Y214D01*
X495Y214D01*
X495Y214D01*
X502D01*
X502Y214D01*
D02*
G37*
G36*
X370Y197D02*
X372Y197D01*
X375Y195D01*
X377Y194D01*
X377Y194D01*
X378Y193D01*
X379Y193D01*
Y194D01*
X379Y195D01*
Y196D01*
X379Y197D01*
X379Y197D01*
X386D01*
X386Y197D01*
X387Y197D01*
X387Y196D01*
Y196D01*
Y156D01*
X387Y156D01*
X386Y155D01*
X386Y155D01*
X380D01*
X379Y155D01*
X379Y156D01*
Y156D01*
Y156D01*
Y181D01*
X378Y183D01*
X377Y185D01*
X376Y187D01*
X374Y188D01*
X373Y189D01*
X371Y189D01*
X370Y189D01*
X370D01*
X368Y189D01*
X366Y188D01*
X365Y187D01*
X365Y187D01*
X365D01*
X359Y194D01*
X360Y195D01*
X361Y196D01*
X364Y197D01*
X365Y197D01*
X366Y198D01*
X368D01*
X370Y197D01*
D02*
G37*
G36*
X539D02*
X541Y197D01*
X543Y196D01*
X544Y195D01*
X546Y194D01*
X547Y194D01*
X548Y193D01*
X548Y193D01*
Y194D01*
X548Y195D01*
Y196D01*
X548Y197D01*
X549Y197D01*
X555D01*
X556Y197D01*
X556Y197D01*
X556Y196D01*
Y196D01*
Y156D01*
X556Y156D01*
X556Y155D01*
X555Y155D01*
X549D01*
X548Y155D01*
X548Y156D01*
Y156D01*
Y156D01*
Y179D01*
X548Y183D01*
X547Y185D01*
X545Y187D01*
X544Y188D01*
X542Y189D01*
X540Y189D01*
X539Y189D01*
X539D01*
X538Y189D01*
X536Y188D01*
X535Y187D01*
X534Y187D01*
X534D01*
X534Y187D01*
X533Y188D01*
X532Y189D01*
X531Y191D01*
X530Y192D01*
X529Y193D01*
X529Y194D01*
X528Y194D01*
Y195D01*
X532Y197D01*
X534Y197D01*
X535Y198D01*
X536D01*
X539Y197D01*
D02*
G37*
G36*
X490Y197D02*
X489Y194D01*
X488Y191D01*
X487Y189D01*
X487Y187D01*
X486Y185D01*
X486Y184D01*
X485Y182D01*
X485Y182D01*
X484Y180D01*
X484Y180D01*
X484Y179D01*
X483Y175D01*
X482Y171D01*
X481Y168D01*
X480Y165D01*
X479Y163D01*
X478Y161D01*
X478Y159D01*
X477Y158D01*
X477Y157D01*
X477Y156D01*
X476Y156D01*
X475Y155D01*
X470D01*
X469Y156D01*
X469Y157D01*
X468Y159D01*
X468Y160D01*
X467Y163D01*
X466Y165D01*
X465Y170D01*
X463Y175D01*
X463Y177D01*
X462Y179D01*
X461Y181D01*
X461Y182D01*
X461Y183D01*
Y183D01*
X460D01*
X458Y179D01*
X457Y175D01*
X456Y171D01*
X455Y168D01*
X454Y165D01*
X454Y163D01*
X453Y161D01*
X452Y159D01*
X452Y158D01*
X452Y157D01*
X451Y156D01*
X451Y155D01*
Y155D01*
X444D01*
X444Y157D01*
X443Y159D01*
X442Y162D01*
X441Y165D01*
X440Y168D01*
X439Y172D01*
X437Y179D01*
X435Y182D01*
X434Y185D01*
X433Y188D01*
X433Y191D01*
X432Y193D01*
X431Y195D01*
X431Y196D01*
Y196D01*
X431Y197D01*
X431Y197D01*
X438D01*
X439Y197D01*
X439Y196D01*
X440Y195D01*
X440Y193D01*
X441Y191D01*
X442Y188D01*
X444Y183D01*
X445Y178D01*
X445Y175D01*
X446Y173D01*
X446Y171D01*
X447Y170D01*
X447Y169D01*
Y169D01*
X448D01*
X449Y174D01*
X451Y178D01*
X452Y182D01*
X453Y185D01*
X454Y188D01*
X455Y190D01*
X456Y192D01*
X456Y194D01*
X457Y195D01*
X457Y196D01*
X458Y196D01*
Y197D01*
X458Y197D01*
X462D01*
X463Y197D01*
X463Y196D01*
X464Y195D01*
X465Y193D01*
X465Y191D01*
X466Y188D01*
X468Y183D01*
X470Y178D01*
X470Y175D01*
X471Y173D01*
X472Y171D01*
X472Y170D01*
X472Y169D01*
Y169D01*
X474D01*
X475Y174D01*
X476Y178D01*
X477Y182D01*
X478Y185D01*
X479Y188D01*
X479Y190D01*
X480Y192D01*
X480Y194D01*
X481Y195D01*
X481Y196D01*
X481Y196D01*
X481Y197D01*
X482Y197D01*
X489D01*
X490Y197D01*
D02*
G37*
G36*
X344Y197D02*
X345Y197D01*
X346D01*
X348Y196D01*
X350Y195D01*
X352Y194D01*
X354Y192D01*
X356Y189D01*
X357Y185D01*
X358Y182D01*
X359Y179D01*
X359Y178D01*
Y177D01*
Y176D01*
Y176D01*
X359Y174D01*
X359Y173D01*
Y173D01*
Y173D01*
X358Y170D01*
X357Y167D01*
X356Y165D01*
X355Y163D01*
X354Y161D01*
X352Y159D01*
X351Y158D01*
X350Y157D01*
X347Y156D01*
X344Y155D01*
X343Y155D01*
X337D01*
X335Y155D01*
X333Y156D01*
X331Y157D01*
X329Y158D01*
X327Y159D01*
X326Y160D01*
X326Y161D01*
X325Y161D01*
X327Y163D01*
X329Y165D01*
X330Y166D01*
X331Y167D01*
X331D01*
X333Y165D01*
X334Y164D01*
X336Y164D01*
X337Y163D01*
X338Y163D01*
X339Y163D01*
X342D01*
X344Y163D01*
X346Y164D01*
X347Y166D01*
X349Y167D01*
X349Y169D01*
X350Y170D01*
X350Y171D01*
Y172D01*
Y173D01*
X325D01*
X325Y173D01*
X324Y173D01*
Y174D01*
Y174D01*
Y181D01*
X324Y183D01*
X325Y186D01*
X326Y188D01*
X327Y190D01*
X329Y193D01*
X333Y195D01*
X336Y196D01*
X338Y197D01*
X340Y197D01*
X340Y198D01*
X343D01*
X344Y197D01*
D02*
G37*
G36*
X359Y263D02*
X361Y263D01*
X363Y262D01*
X365Y262D01*
X366Y261D01*
X367Y260D01*
X368Y260D01*
X368Y259D01*
Y261D01*
X368Y262D01*
Y262D01*
X368Y263D01*
X369Y263D01*
X376D01*
X376Y263D01*
X377Y263D01*
X377Y262D01*
Y262D01*
Y223D01*
X377Y222D01*
X376Y222D01*
X376Y221D01*
X369D01*
X368Y222D01*
X368Y222D01*
Y222D01*
Y223D01*
Y247D01*
X368Y250D01*
X367Y252D01*
X366Y253D01*
X364Y254D01*
X363Y255D01*
X361Y255D01*
X360Y255D01*
X360D01*
X358Y255D01*
X356Y254D01*
X356Y254D01*
X355Y254D01*
X354D01*
X349Y260D01*
X350Y261D01*
X351Y262D01*
X352Y263D01*
X353Y263D01*
X354Y263D01*
X355Y264D01*
X357D01*
X359Y263D01*
D02*
G37*
G36*
X334D02*
X336Y263D01*
X337Y263D01*
X337Y263D01*
X340Y262D01*
X341Y260D01*
X343Y259D01*
X344Y258D01*
X347Y254D01*
X348Y251D01*
X349Y248D01*
X349Y245D01*
X350Y244D01*
Y243D01*
Y243D01*
Y243D01*
X349Y240D01*
X349Y237D01*
X349Y236D01*
Y235D01*
X349Y234D01*
Y234D01*
X347Y232D01*
X347Y230D01*
X345Y228D01*
X344Y226D01*
X341Y224D01*
X338Y223D01*
X336Y222D01*
X333Y221D01*
X332Y221D01*
X329D01*
X326Y221D01*
X324Y222D01*
X322Y223D01*
X319Y224D01*
X318Y226D01*
X317Y227D01*
X316Y228D01*
X316Y228D01*
Y228D01*
X316Y229D01*
X317Y230D01*
X317Y230D01*
X319Y231D01*
X320Y232D01*
X320Y233D01*
X321Y233D01*
X322Y234D01*
X323Y232D01*
X325Y231D01*
X326Y230D01*
X327Y230D01*
X328Y230D01*
X329Y229D01*
X329D01*
X331Y230D01*
X333Y230D01*
X336Y231D01*
X338Y234D01*
X340Y236D01*
X340Y238D01*
X341Y241D01*
X341Y242D01*
Y242D01*
Y243D01*
X341Y245D01*
X340Y247D01*
X340Y248D01*
X339Y250D01*
X338Y252D01*
X336Y254D01*
X334Y254D01*
X332Y255D01*
X331Y255D01*
X331D01*
X329Y255D01*
X327Y254D01*
X324Y253D01*
X323Y252D01*
X322Y252D01*
X322Y251D01*
X322Y251D01*
X320Y252D01*
X319Y253D01*
X317Y254D01*
X317Y255D01*
X316Y256D01*
X316Y256D01*
Y257D01*
X318Y259D01*
X320Y261D01*
X322Y262D01*
X324Y263D01*
X326Y263D01*
X327Y264D01*
X331D01*
X334Y263D01*
D02*
G37*
G36*
X419Y263D02*
X419Y263D01*
X419Y262D01*
Y262D01*
Y237D01*
X419Y234D01*
X419Y232D01*
X417Y228D01*
X415Y226D01*
X413Y224D01*
X410Y222D01*
X408Y221D01*
X407Y221D01*
X407Y221D01*
X405D01*
X402Y221D01*
X400Y222D01*
X398Y222D01*
X397Y223D01*
X396Y224D01*
X395Y225D01*
X395Y225D01*
Y226D01*
X394D01*
Y224D01*
X394Y223D01*
Y222D01*
X394Y222D01*
X394Y221D01*
X387D01*
X386Y222D01*
X386Y222D01*
X386Y222D01*
Y223D01*
Y262D01*
X386Y263D01*
X386Y263D01*
X387Y263D01*
X393D01*
X394Y263D01*
X394Y263D01*
X394Y262D01*
Y262D01*
Y238D01*
X394Y235D01*
X396Y233D01*
X396Y232D01*
X398Y231D01*
X399Y230D01*
X400Y230D01*
X401Y229D01*
X403D01*
X405Y230D01*
X407Y231D01*
X408Y232D01*
X409Y234D01*
X410Y235D01*
X410Y237D01*
X411Y238D01*
Y238D01*
Y262D01*
X411Y263D01*
X411Y263D01*
X412Y263D01*
X419D01*
X419Y263D01*
D02*
G37*
G36*
X500Y576D02*
X501Y575D01*
X501Y573D01*
X502Y570D01*
X502Y567D01*
X503Y564D01*
X505Y556D01*
X506Y548D01*
X507Y544D01*
X507Y541D01*
X508Y539D01*
X508Y536D01*
X509Y535D01*
Y535D01*
X511Y534D01*
X512Y533D01*
X517Y530D01*
X522Y528D01*
X527Y526D01*
X532Y525D01*
X534Y524D01*
X536Y523D01*
X537Y523D01*
X538Y522D01*
X539Y522D01*
X539D01*
X574Y546D01*
X575Y546D01*
X576Y545D01*
X577Y543D01*
X580Y541D01*
X582Y539D01*
X584Y536D01*
X590Y531D01*
X595Y526D01*
X598Y523D01*
X600Y521D01*
X601Y519D01*
X603Y517D01*
X604Y516D01*
X604Y516D01*
Y515D01*
X581Y481D01*
Y480D01*
X582Y479D01*
X582Y478D01*
X582Y477D01*
X584Y475D01*
X584Y472D01*
X585Y470D01*
X587Y465D01*
X590Y460D01*
X591Y457D01*
X592Y455D01*
X592Y453D01*
X593Y452D01*
X594Y451D01*
X594Y451D01*
X594Y451D01*
X595Y450D01*
X597Y450D01*
X599Y449D01*
X602Y448D01*
X605Y448D01*
X611Y447D01*
X618Y445D01*
X621Y445D01*
X623Y444D01*
X626Y444D01*
X627Y444D01*
X628Y443D01*
X629D01*
X631Y443D01*
X633Y443D01*
X634Y442D01*
X635Y441D01*
X636Y440D01*
X636Y439D01*
Y438D01*
Y438D01*
Y402D01*
X635Y400D01*
X635Y399D01*
X633Y399D01*
X631Y398D01*
X628Y398D01*
X625Y397D01*
X622Y397D01*
X615Y395D01*
X608Y394D01*
X605Y393D01*
X602Y393D01*
X600Y392D01*
X598Y392D01*
X597Y392D01*
X596D01*
X596Y392D01*
X595Y390D01*
X594Y389D01*
X593Y387D01*
X592Y384D01*
X591Y382D01*
X589Y376D01*
X586Y370D01*
X585Y367D01*
X584Y365D01*
X584Y363D01*
X583Y361D01*
X582Y360D01*
Y360D01*
Y358D01*
X586Y353D01*
X590Y348D01*
X592Y344D01*
X595Y340D01*
X597Y337D01*
X599Y334D01*
X600Y332D01*
X601Y330D01*
X603Y329D01*
X603Y328D01*
X604Y327D01*
X604Y326D01*
X604Y326D01*
Y325D01*
Y325D01*
X600Y321D01*
X597Y317D01*
X594Y314D01*
X590Y311D01*
X588Y308D01*
X586Y306D01*
X584Y304D01*
X581Y302D01*
X580Y300D01*
X579Y299D01*
X577Y297D01*
X576Y296D01*
X575Y296D01*
X575D01*
X574Y296D01*
X573Y297D01*
X571Y298D01*
X569Y299D01*
X566Y301D01*
X563Y303D01*
X558Y307D01*
X552Y311D01*
X549Y312D01*
X547Y314D01*
X544Y315D01*
X543Y316D01*
X542Y317D01*
X541Y317D01*
X539Y316D01*
X537Y315D01*
X532Y313D01*
X530Y312D01*
X528Y311D01*
X527Y310D01*
X526Y310D01*
X525D01*
X525Y310D01*
X525Y311D01*
X524Y312D01*
X524Y313D01*
X523Y314D01*
X522Y316D01*
X520Y321D01*
X518Y326D01*
X515Y332D01*
X513Y338D01*
X510Y344D01*
X507Y351D01*
X505Y357D01*
X503Y362D01*
X501Y368D01*
X499Y372D01*
X498Y374D01*
X498Y375D01*
X497Y376D01*
X497Y377D01*
X496Y378D01*
Y378D01*
Y379D01*
X501Y382D01*
X505Y386D01*
X509Y389D01*
X512Y392D01*
X515Y396D01*
X516Y399D01*
X518Y402D01*
X520Y406D01*
X521Y408D01*
X521Y411D01*
X522Y414D01*
X522Y416D01*
X523Y417D01*
X523Y419D01*
Y419D01*
Y420D01*
X523Y425D01*
X522Y427D01*
X522Y429D01*
X521Y431D01*
X521Y433D01*
X521Y434D01*
Y434D01*
X518Y439D01*
X515Y444D01*
X512Y448D01*
X509Y451D01*
X506Y454D01*
X502Y457D01*
X499Y459D01*
X495Y460D01*
X492Y462D01*
X489Y463D01*
X487Y463D01*
X484Y464D01*
X482Y464D01*
X481Y464D01*
X479D01*
X478Y464D01*
X476Y464D01*
X474D01*
X472Y463D01*
X471Y463D01*
X470Y463D01*
X469D01*
X463Y460D01*
X458Y458D01*
X454Y455D01*
X450Y451D01*
X447Y448D01*
X444Y444D01*
X442Y441D01*
X440Y437D01*
X439Y434D01*
X438Y431D01*
X437Y428D01*
X437Y425D01*
X436Y423D01*
X436Y422D01*
Y421D01*
Y420D01*
Y420D01*
X436Y415D01*
X437Y411D01*
X438Y407D01*
X440Y403D01*
X442Y399D01*
X444Y396D01*
X447Y393D01*
X449Y390D01*
X451Y388D01*
X454Y385D01*
X456Y384D01*
X458Y382D01*
X460Y381D01*
X461Y380D01*
X462Y379D01*
X462Y379D01*
Y379D01*
X462Y378D01*
X461Y377D01*
X461Y375D01*
X460Y373D01*
X460Y372D01*
X458Y367D01*
X456Y362D01*
X453Y356D01*
X451Y350D01*
X448Y343D01*
X445Y337D01*
X443Y331D01*
X440Y325D01*
X438Y320D01*
X436Y316D01*
X435Y314D01*
X435Y312D01*
X435Y311D01*
X434Y310D01*
X434Y310D01*
Y310D01*
X433D01*
X433Y310D01*
X431Y311D01*
X428Y312D01*
X425Y314D01*
X423Y315D01*
X420Y316D01*
X419Y317D01*
X419Y317D01*
X418Y317D01*
X418D01*
X417Y317D01*
X416Y316D01*
X414Y315D01*
X412Y314D01*
X410Y312D01*
X407Y311D01*
X401Y307D01*
X395Y303D01*
X393Y301D01*
X390Y299D01*
X388Y298D01*
X387Y297D01*
X386Y296D01*
X385Y296D01*
X384D01*
X379Y301D01*
X374Y305D01*
X370Y309D01*
X367Y313D01*
X364Y315D01*
X361Y318D01*
X359Y320D01*
X358Y322D01*
X357Y323D01*
X356Y324D01*
X355Y325D01*
X355Y325D01*
X354Y326D01*
Y326D01*
X358Y332D01*
X361Y337D01*
X364Y341D01*
X367Y345D01*
X369Y348D01*
X371Y351D01*
X372Y353D01*
X373Y355D01*
X375Y356D01*
X375Y357D01*
X375Y358D01*
X376Y359D01*
X376Y359D01*
Y360D01*
X376Y360D01*
X376Y361D01*
X375Y363D01*
X374Y365D01*
X373Y367D01*
X373Y370D01*
X370Y376D01*
X368Y381D01*
X367Y384D01*
X366Y386D01*
X365Y388D01*
X365Y389D01*
X364Y390D01*
X364Y391D01*
X363Y391D01*
X362Y391D01*
X361Y392D01*
X359Y392D01*
X356Y393D01*
X352Y394D01*
X347Y395D01*
X346Y395D01*
X344Y395D01*
X343Y396D01*
X342D01*
X341Y396D01*
X341D01*
X338Y396D01*
X335Y397D01*
X333Y397D01*
X331Y398D01*
X329Y398D01*
X327Y398D01*
X326Y399D01*
X325Y399D01*
X324Y400D01*
X323Y400D01*
X323Y401D01*
Y439D01*
Y440D01*
X323Y441D01*
X324Y441D01*
X324Y441D01*
X324Y442D01*
X326Y442D01*
X327Y443D01*
X330Y443D01*
X333Y444D01*
X336Y445D01*
X343Y446D01*
X351Y447D01*
X354Y448D01*
X357Y448D01*
X359Y449D01*
X361Y449D01*
X363Y449D01*
X363D01*
X364Y450D01*
X364Y451D01*
X366Y452D01*
X366Y454D01*
X368Y456D01*
X369Y459D01*
X371Y465D01*
X373Y470D01*
X375Y473D01*
X375Y475D01*
X376Y477D01*
X377Y479D01*
X377Y480D01*
X377Y480D01*
Y481D01*
X373Y487D01*
X370Y492D01*
X367Y496D01*
X364Y500D01*
X362Y504D01*
X360Y506D01*
X359Y509D01*
X357Y511D01*
X357Y512D01*
X356Y513D01*
X356Y514D01*
X355Y515D01*
X355Y515D01*
Y516D01*
Y516D01*
X359Y520D01*
X362Y524D01*
X366Y527D01*
X368Y530D01*
X371Y533D01*
X373Y535D01*
X375Y537D01*
X377Y539D01*
X379Y541D01*
X380Y542D01*
X382Y544D01*
X384Y545D01*
X384Y545D01*
X384D01*
X385Y545D01*
X386Y544D01*
X388Y543D01*
X391Y542D01*
X393Y540D01*
X396Y538D01*
X403Y534D01*
X409Y529D01*
X412Y527D01*
X414Y526D01*
X417Y524D01*
X418Y523D01*
X419Y522D01*
X419Y522D01*
X420Y522D01*
X421Y523D01*
X423Y523D01*
X425Y524D01*
X428Y525D01*
X430Y526D01*
X435Y528D01*
X440Y530D01*
X443Y531D01*
X445Y532D01*
X447Y533D01*
X448Y533D01*
X449Y534D01*
X449D01*
X449Y535D01*
X450Y536D01*
X451Y538D01*
X451Y540D01*
X451Y543D01*
X452Y545D01*
X453Y551D01*
X454Y556D01*
X455Y559D01*
X455Y561D01*
X456Y563D01*
X456Y564D01*
X456Y565D01*
Y565D01*
Y567D01*
X456Y569D01*
X457Y572D01*
X458Y574D01*
X458Y575D01*
X459Y576D01*
X460Y577D01*
X461Y577D01*
X500D01*
X500Y576D01*
D02*
G37*
G36*
X541Y263D02*
X543Y263D01*
X546Y261D01*
X548Y260D01*
X549Y260D01*
X549Y259D01*
X549Y259D01*
Y260D01*
X549Y261D01*
X550Y262D01*
Y263D01*
X550Y263D01*
X557D01*
X557Y263D01*
X558Y263D01*
X558Y262D01*
Y262D01*
Y223D01*
X558Y222D01*
X557Y222D01*
X557Y221D01*
X550D01*
X550Y222D01*
X549Y222D01*
X549Y222D01*
Y223D01*
Y244D01*
Y246D01*
X549Y247D01*
X548Y250D01*
X547Y252D01*
X545Y254D01*
X544Y255D01*
X542Y255D01*
X541Y255D01*
X541D01*
X538Y255D01*
X536Y254D01*
X535Y253D01*
X534Y251D01*
X534Y250D01*
X533Y249D01*
Y249D01*
Y248D01*
Y223D01*
X533Y222D01*
X533Y222D01*
X532Y221D01*
X525D01*
X525Y222D01*
X524Y222D01*
Y222D01*
Y223D01*
Y248D01*
Y250D01*
X524Y251D01*
X525Y253D01*
Y253D01*
X526Y257D01*
X528Y259D01*
X530Y261D01*
X533Y262D01*
X535Y263D01*
X536Y263D01*
X538Y264D01*
X540D01*
X541Y263D01*
D02*
G37*
G36*
X301Y263D02*
X303Y262D01*
X305Y261D01*
X306Y259D01*
X308Y258D01*
X309Y256D01*
X311Y253D01*
X312Y250D01*
X313Y247D01*
X313Y246D01*
Y245D01*
Y244D01*
Y244D01*
Y240D01*
Y238D01*
X313Y236D01*
X312Y235D01*
Y235D01*
Y235D01*
X312Y232D01*
X311Y230D01*
X310Y228D01*
X308Y227D01*
X306Y224D01*
X303Y223D01*
X301Y222D01*
X298Y221D01*
X297Y221D01*
X294D01*
X290Y221D01*
X288Y222D01*
X285Y223D01*
X283Y224D01*
X282Y225D01*
X281Y226D01*
X280Y227D01*
X280Y227D01*
Y228D01*
X280Y228D01*
X281Y229D01*
X282Y231D01*
X283Y231D01*
X285Y232D01*
X285Y232D01*
X285Y233D01*
X286D01*
X287Y231D01*
X289Y230D01*
X291Y230D01*
X292Y229D01*
X293Y229D01*
X294Y229D01*
X295D01*
X298Y229D01*
X300Y230D01*
X302Y232D01*
X303Y234D01*
X304Y235D01*
X305Y237D01*
X305Y238D01*
Y238D01*
Y239D01*
X280D01*
X280Y239D01*
X280Y239D01*
X279Y240D01*
Y240D01*
Y252D01*
X280Y254D01*
X281Y256D01*
X284Y259D01*
X286Y261D01*
X289Y262D01*
X291Y263D01*
X292Y263D01*
X294Y264D01*
X298D01*
X301Y263D01*
D02*
G37*
G36*
X588D02*
X590Y262D01*
X592Y260D01*
X594Y259D01*
X596Y255D01*
X598Y251D01*
X599Y248D01*
X599Y245D01*
X600Y244D01*
Y243D01*
Y242D01*
Y242D01*
Y241D01*
X599Y239D01*
X599Y236D01*
X599Y235D01*
Y234D01*
X599Y233D01*
Y233D01*
X598Y231D01*
X596Y229D01*
X595Y227D01*
X594Y226D01*
X591Y224D01*
X589Y222D01*
X586Y222D01*
X584Y221D01*
X582Y221D01*
X580D01*
X576Y221D01*
X574Y222D01*
X572Y223D01*
X570Y224D01*
X568Y225D01*
X567Y226D01*
X567Y227D01*
X566Y227D01*
Y228D01*
X567Y228D01*
X567Y229D01*
X569Y231D01*
X571Y232D01*
X571Y232D01*
X572Y233D01*
X572D01*
X574Y231D01*
X575Y230D01*
X577Y230D01*
X578Y229D01*
X579Y229D01*
X580Y229D01*
X581D01*
X584Y229D01*
X586Y230D01*
X588Y232D01*
X589Y234D01*
X590Y236D01*
X591Y237D01*
X591Y238D01*
Y239D01*
X566D01*
X565Y239D01*
X565Y239D01*
Y240D01*
Y240D01*
Y245D01*
Y247D01*
X565Y249D01*
X565Y250D01*
Y250D01*
X566Y252D01*
X567Y254D01*
X568Y256D01*
X569Y258D01*
X572Y260D01*
X575Y262D01*
X577Y263D01*
X580Y263D01*
X581Y264D01*
X586D01*
X588Y263D01*
D02*
G37*
%LPC*%
G36*
X663Y255D02*
X663D01*
X660Y255D01*
X658Y254D01*
X657Y252D01*
X656Y251D01*
X655Y249D01*
X655Y248D01*
X654Y247D01*
Y246D01*
Y239D01*
X655Y236D01*
X655Y234D01*
X657Y232D01*
X659Y231D01*
X660Y230D01*
X661Y230D01*
X663Y229D01*
X663D01*
X664Y230D01*
X666Y230D01*
X668Y231D01*
X669Y233D01*
X670Y236D01*
X671Y238D01*
X672Y240D01*
X672Y242D01*
Y242D01*
Y242D01*
Y244D01*
X671Y246D01*
X671Y248D01*
X670Y250D01*
X669Y252D01*
X667Y254D01*
X665Y254D01*
X664Y255D01*
X663Y255D01*
D02*
G37*
G36*
X417Y173D02*
X405D01*
Y169D01*
X405Y167D01*
X406Y165D01*
X407Y164D01*
X408Y164D01*
X409Y163D01*
X410Y163D01*
X415D01*
X417Y163D01*
X419Y164D01*
X420Y164D01*
X421Y165D01*
X421Y166D01*
X422Y167D01*
Y167D01*
Y168D01*
Y168D01*
X421Y170D01*
X421Y171D01*
X420Y172D01*
X419Y172D01*
X417Y173D01*
X417Y173D01*
D02*
G37*
G36*
X582Y256D02*
X582D01*
X580Y255D01*
X577Y254D01*
X576Y253D01*
X575Y252D01*
X574Y250D01*
X574Y249D01*
X573Y248D01*
Y247D01*
Y246D01*
X591D01*
X590Y249D01*
X589Y252D01*
X587Y253D01*
X586Y254D01*
X585Y255D01*
X583Y255D01*
X582Y256D01*
D02*
G37*
G36*
X297D02*
X297D01*
X294Y255D01*
X291Y254D01*
X289Y253D01*
X289Y251D01*
X288Y250D01*
X287Y248D01*
X287Y247D01*
Y247D01*
Y246D01*
X305D01*
X305Y249D01*
X303Y251D01*
X302Y253D01*
X301Y254D01*
X299Y255D01*
X298Y255D01*
X297Y256D01*
D02*
G37*
G36*
X343Y189D02*
X340D01*
X338Y189D01*
X336Y188D01*
X335Y187D01*
X334Y185D01*
X333Y183D01*
X333Y182D01*
X333Y181D01*
Y180D01*
X350D01*
Y181D01*
X350Y183D01*
X349Y185D01*
X348Y187D01*
X347Y188D01*
X345Y188D01*
X344Y189D01*
X343Y189D01*
D02*
G37*
G36*
X444Y255D02*
X442D01*
X441Y255D01*
X439Y253D01*
X437Y251D01*
X436Y249D01*
X435Y247D01*
X435Y245D01*
X435Y244D01*
Y244D01*
Y244D01*
Y241D01*
Y239D01*
X435Y237D01*
X436Y234D01*
X438Y232D01*
X439Y231D01*
X441Y230D01*
X442Y230D01*
X443Y229D01*
X444D01*
X446Y230D01*
X448Y231D01*
X450Y232D01*
X451Y234D01*
X451Y236D01*
X452Y237D01*
X452Y238D01*
Y238D01*
Y246D01*
X451Y249D01*
X451Y251D01*
X449Y253D01*
X447Y254D01*
X446Y255D01*
X445Y255D01*
X444Y255D01*
D02*
G37*
G36*
X622D02*
X622D01*
X619Y255D01*
X617Y254D01*
X616Y252D01*
X615Y250D01*
X614Y248D01*
X614Y247D01*
Y246D01*
Y245D01*
Y239D01*
X614Y236D01*
X615Y234D01*
X616Y232D01*
X618Y231D01*
X619Y230D01*
X620Y230D01*
X621Y229D01*
X622D01*
X623Y230D01*
X625Y230D01*
X627Y231D01*
X628Y233D01*
X629Y235D01*
X629Y238D01*
X630Y240D01*
X630Y241D01*
Y241D01*
Y241D01*
Y244D01*
X630Y246D01*
X629Y248D01*
X629Y249D01*
X627Y252D01*
X626Y253D01*
X624Y254D01*
X623Y255D01*
X622Y255D01*
D02*
G37*
G36*
X584Y173D02*
X574D01*
Y168D01*
X575Y166D01*
X575Y165D01*
X576Y164D01*
X577Y163D01*
X578Y163D01*
X579Y163D01*
X585D01*
X587Y163D01*
X588Y164D01*
X590Y164D01*
X590Y165D01*
X591Y166D01*
X591Y167D01*
Y167D01*
Y168D01*
Y168D01*
X591Y170D01*
X590Y171D01*
X589Y172D01*
X587Y172D01*
X586Y173D01*
X584Y173D01*
D02*
G37*
G36*
X511Y189D02*
X510D01*
X508Y189D01*
X506Y188D01*
X505Y186D01*
X504Y184D01*
X503Y182D01*
X503Y180D01*
Y179D01*
Y179D01*
Y179D01*
Y175D01*
Y173D01*
X503Y171D01*
X504Y168D01*
X505Y166D01*
X507Y165D01*
X508Y164D01*
X509Y164D01*
X510Y163D01*
X512D01*
X513Y164D01*
X515Y164D01*
X516Y165D01*
X517Y167D01*
X518Y169D01*
X519Y171D01*
X519Y173D01*
Y174D01*
Y175D01*
Y178D01*
Y180D01*
X519Y182D01*
X518Y184D01*
X516Y187D01*
X515Y188D01*
X513Y189D01*
X512Y189D01*
X511Y189D01*
D02*
G37*
%LPD*%
M02*
