G04 Layer_Color=8388736*
%FSLAX23Y23*%
%MOIN*%
G70*
G01*
G75*
%ADD23R,0.030X0.110*%
%ADD51R,0.091X0.073*%
%ADD52R,0.108X0.108*%
%ADD53O,0.018X0.038*%
%ADD54O,0.038X0.018*%
G04:AMPARAMS|DCode=55|XSize=30mil|YSize=32mil|CornerRadius=8mil|HoleSize=0mil|Usage=FLASHONLY|Rotation=90.000|XOffset=0mil|YOffset=0mil|HoleType=Round|Shape=RoundedRectangle|*
%AMROUNDEDRECTD55*
21,1,0.030,0.015,0,0,90.0*
21,1,0.013,0.032,0,0,90.0*
1,1,0.017,0.008,0.007*
1,1,0.017,0.008,-0.007*
1,1,0.017,-0.008,-0.007*
1,1,0.017,-0.008,0.007*
%
%ADD55ROUNDEDRECTD55*%
%ADD56R,0.032X0.039*%
G04:AMPARAMS|DCode=57|XSize=37mil|YSize=47mil|CornerRadius=10mil|HoleSize=0mil|Usage=FLASHONLY|Rotation=270.000|XOffset=0mil|YOffset=0mil|HoleType=Round|Shape=RoundedRectangle|*
%AMROUNDEDRECTD57*
21,1,0.037,0.028,0,0,270.0*
21,1,0.017,0.047,0,0,270.0*
1,1,0.020,-0.014,-0.009*
1,1,0.020,-0.014,0.009*
1,1,0.020,0.014,0.009*
1,1,0.020,0.014,-0.009*
%
%ADD57ROUNDEDRECTD57*%
%ADD58R,0.025X0.017*%
%ADD59R,0.041X0.069*%
G04:AMPARAMS|DCode=60|XSize=37mil|YSize=47mil|CornerRadius=10mil|HoleSize=0mil|Usage=FLASHONLY|Rotation=0.000|XOffset=0mil|YOffset=0mil|HoleType=Round|Shape=RoundedRectangle|*
%AMROUNDEDRECTD60*
21,1,0.037,0.028,0,0,0.0*
21,1,0.017,0.047,0,0,0.0*
1,1,0.020,0.009,-0.014*
1,1,0.020,-0.009,-0.014*
1,1,0.020,-0.009,0.014*
1,1,0.020,0.009,0.014*
%
%ADD60ROUNDEDRECTD60*%
%ADD61R,0.142X0.063*%
%ADD62R,0.075X0.051*%
G04:AMPARAMS|DCode=63|XSize=60mil|YSize=68mil|CornerRadius=17mil|HoleSize=0mil|Usage=FLASHONLY|Rotation=180.000|XOffset=0mil|YOffset=0mil|HoleType=Round|Shape=RoundedRectangle|*
%AMROUNDEDRECTD63*
21,1,0.060,0.034,0,0,180.0*
21,1,0.026,0.068,0,0,180.0*
1,1,0.034,-0.013,0.017*
1,1,0.034,0.013,0.017*
1,1,0.034,0.013,-0.017*
1,1,0.034,-0.013,-0.017*
%
%ADD63ROUNDEDRECTD63*%
%ADD64R,0.091X0.063*%
%ADD65O,0.065X0.032*%
G04:AMPARAMS|DCode=66|XSize=30mil|YSize=32mil|CornerRadius=8mil|HoleSize=0mil|Usage=FLASHONLY|Rotation=0.000|XOffset=0mil|YOffset=0mil|HoleType=Round|Shape=RoundedRectangle|*
%AMROUNDEDRECTD66*
21,1,0.030,0.015,0,0,0.0*
21,1,0.013,0.032,0,0,0.0*
1,1,0.017,0.007,-0.008*
1,1,0.017,-0.007,-0.008*
1,1,0.017,-0.007,0.008*
1,1,0.017,0.007,0.008*
%
%ADD66ROUNDEDRECTD66*%
%ADD67O,0.083X0.032*%
%ADD68R,0.056X0.056*%
%ADD69R,0.067X0.067*%
%ADD70C,0.067*%
%ADD71O,0.128X0.068*%
%ADD72C,0.205*%
%ADD73R,0.067X0.067*%
D23*
X1320Y55D02*
D03*
Y215D02*
D03*
X1370Y55D02*
D03*
Y215D02*
D03*
X1420Y55D02*
D03*
Y215D02*
D03*
X1470Y55D02*
D03*
Y215D02*
D03*
X1520Y55D02*
D03*
Y215D02*
D03*
D51*
X630Y70D02*
D03*
Y150D02*
D03*
D52*
X1230Y510D02*
D03*
D53*
X1279Y433D02*
D03*
X1260D02*
D03*
X1240D02*
D03*
X1220D02*
D03*
X1200D02*
D03*
X1181D02*
D03*
X1181Y587D02*
D03*
X1200D02*
D03*
X1220D02*
D03*
X1240D02*
D03*
X1260D02*
D03*
X1279D02*
D03*
D54*
X1153Y461D02*
D03*
Y480D02*
D03*
Y500D02*
D03*
Y520D02*
D03*
Y540D02*
D03*
Y559D02*
D03*
X1307Y559D02*
D03*
Y540D02*
D03*
Y520D02*
D03*
Y500D02*
D03*
Y480D02*
D03*
Y461D02*
D03*
D55*
X1380Y468D02*
D03*
Y505D02*
D03*
X1450Y509D02*
D03*
Y471D02*
D03*
X1260Y374D02*
D03*
Y336D02*
D03*
X2130Y549D02*
D03*
Y511D02*
D03*
D56*
X1415Y461D02*
D03*
Y509D02*
D03*
D57*
X1300Y372D02*
D03*
Y318D02*
D03*
X1620Y502D02*
D03*
Y448D02*
D03*
X2576Y430D02*
D03*
Y484D02*
D03*
X2896Y430D02*
D03*
Y484D02*
D03*
X2896Y634D02*
D03*
Y580D02*
D03*
X3546Y425D02*
D03*
Y479D02*
D03*
X3221Y430D02*
D03*
Y484D02*
D03*
X1620Y348D02*
D03*
Y402D02*
D03*
X2576Y634D02*
D03*
Y580D02*
D03*
X3216Y634D02*
D03*
Y580D02*
D03*
X3546Y634D02*
D03*
Y580D02*
D03*
D58*
X812Y140D02*
D03*
Y160D02*
D03*
Y180D02*
D03*
Y200D02*
D03*
X738D02*
D03*
Y180D02*
D03*
Y160D02*
D03*
Y140D02*
D03*
D59*
X775Y170D02*
D03*
D60*
X608Y225D02*
D03*
X662D02*
D03*
X1243Y760D02*
D03*
X1297D02*
D03*
X1243Y825D02*
D03*
X1297D02*
D03*
D61*
X1192Y120D02*
D03*
X988D02*
D03*
D62*
X870Y73D02*
D03*
Y177D02*
D03*
D63*
X722Y80D02*
D03*
X797D02*
D03*
D64*
X1033Y465D02*
D03*
Y288D02*
D03*
X675D02*
D03*
Y465D02*
D03*
D65*
X817Y560D02*
D03*
Y610D02*
D03*
Y660D02*
D03*
Y710D02*
D03*
X603Y560D02*
D03*
Y610D02*
D03*
Y660D02*
D03*
Y710D02*
D03*
D66*
X586Y765D02*
D03*
X624D02*
D03*
X801D02*
D03*
X839D02*
D03*
D67*
X2062Y100D02*
D03*
Y150D02*
D03*
Y200D02*
D03*
Y250D02*
D03*
Y300D02*
D03*
Y350D02*
D03*
Y400D02*
D03*
Y450D02*
D03*
Y500D02*
D03*
Y550D02*
D03*
X1688Y100D02*
D03*
Y150D02*
D03*
Y200D02*
D03*
Y250D02*
D03*
Y300D02*
D03*
Y350D02*
D03*
Y400D02*
D03*
Y450D02*
D03*
Y500D02*
D03*
Y550D02*
D03*
D68*
X1344Y760D02*
D03*
X1427D02*
D03*
X1344Y825D02*
D03*
X1427D02*
D03*
D69*
X510Y190D02*
D03*
Y755D02*
D03*
D70*
Y90D02*
D03*
X2075Y720D02*
D03*
X1975Y820D02*
D03*
Y720D02*
D03*
X1875Y820D02*
D03*
Y720D02*
D03*
X1775Y820D02*
D03*
Y720D02*
D03*
X1675Y820D02*
D03*
Y720D02*
D03*
X510Y455D02*
D03*
Y655D02*
D03*
Y555D02*
D03*
D71*
X2756Y382D02*
D03*
Y482D02*
D03*
Y582D02*
D03*
Y682D02*
D03*
X3076Y382D02*
D03*
Y482D02*
D03*
Y582D02*
D03*
Y682D02*
D03*
X3401Y382D02*
D03*
Y482D02*
D03*
Y582D02*
D03*
Y682D02*
D03*
X2431Y382D02*
D03*
Y482D02*
D03*
Y582D02*
D03*
Y682D02*
D03*
D72*
X1000Y700D02*
D03*
X3575Y165D02*
D03*
D73*
X2075Y820D02*
D03*
M02*
